<svg id="Layer_1" data-name="Layer 1" xmlns="http://www.w3.org/2000/svg" viewBox="0 0 800 600"><defs><style>.cls-1,.cls-5{fill:#003263;}.cls-2{fill:#00c4a8;}.cls-3{fill:#0071bc;}.cls-4{fill:#0071bc;}.cls-5{font-size:197px;font-family:Roboto;font-weight:800;}</style></defs><title>cs3-text-logo</title><polygon class="cls-1" points="385.82 196.72 385.5 398.78 211.83 502.06 38.48 403.28 38.8 201.22 212.47 97.94 385.82 196.72"/><polygon class="cls-1" points="315.87 238.48 315.68 359.34 211.81 421.11 108.13 362.03 108.32 241.18 212.19 179.41 315.87 238.48"/><polygon class="cls-1" points="271.32 264.98 271.21 334 211.89 369.28 152.68 335.54 152.79 266.52 212.11 231.24 271.32 264.98"/><polygon class="cls-2" points="152.79 266.52 212 300.26 271.32 264.98 212.11 231.24 152.79 266.52"/><polygon class="cls-3" points="211.89 369.28 152.68 335.54 152.79 266.52 212 300.26 211.89 369.28"/><polygon class="cls-3" points="211.81 421.11 211.89 369.28 271.21 334 271.32 264.98 315.87 238.48 315.68 359.34 211.81 421.11"/><polygon class="cls-2" points="315.87 238.48 372.94 204.54 212.29 113.01 51.35 208.72 108.32 241.18 212.19 179.41 315.87 238.48"/><polygon class="cls-4" points="211.71 487.51 211.81 421.11 108.13 362.03 108.32 241.18 51.35 208.72 51.06 395.97 211.71 487.51"/><text class="cls-5" transform="translate(410.89 381.57)">CS<tspan class="cls-4" x="252.6" y="0">3</tspan></text></svg>