<svg id="Layer_1" data-name="Layer 1" xmlns="http://www.w3.org/2000/svg" viewBox="0 0 800 600"><defs><style>.cls-1,.cls-6{fill:#003263;}.cls-2{fill:#005936;}.cls-3{fill:#0071bc;}.cls-4{fill:#a7b0b7;}.cls-5{fill:#fff;}.cls-6{font-size:197px;font-family:Roboto-Black, Roboto;font-weight:800;}</style></defs><title>cs3-text-logo</title><polygon class="cls-1" points="385.82 196.72 385.5 398.78 211.83 502.06 38.48 403.28 38.8 201.22 212.47 97.94 385.82 196.72"/><polygon class="cls-1" points="315.87 238.48 315.68 359.34 211.81 421.11 108.13 362.03 108.32 241.18 212.19 179.41 315.87 238.48"/><polygon class="cls-1" points="271.32 264.98 271.21 334 211.89 369.28 152.68 335.54 152.79 266.52 212.11 231.24 271.32 264.98"/><polygon class="cls-2" points="152.79 266.52 212 300.26 271.32 264.98 212.11 231.24 152.79 266.52"/><polygon class="cls-3" points="211.89 369.28 152.68 335.54 152.79 266.52 212 300.26 211.89 369.28"/><polygon class="cls-4" points="211.81 421.11 211.89 369.28 271.21 334 271.32 264.98 315.87 238.48 315.68 359.34 211.81 421.11"/><polygon class="cls-2" points="315.87 238.48 372.94 204.54 212.29 113.01 51.35 208.72 108.32 241.18 212.19 179.41 315.87 238.48"/><polygon class="cls-3" points="211.71 487.51 211.81 421.11 108.13 362.03 108.32 241.18 51.35 208.72 51.06 395.97 211.71 487.51"/><path class="cls-5" d="M182,303.64l.09.05a19.82,19.82,0,0,1,6.43,6.12,16.07,16.07,0,0,1,2.95,7.91l-3.17-1.85a10.08,10.08,0,0,0-1.88-5.12,13.29,13.29,0,0,0-4.32-4c-2.39-1.38-4.24-1.53-5.62-.48s-2.09,3.31-2.12,6.76a19.57,19.57,0,0,0,2,9.16,14.15,14.15,0,0,0,5.52,6c1.84,1.06,3.3,1.41,4.42,1s1.77-1.45,1.93-3.25l3.18,1.85q-.37,4.07-3,4.87t-6.47-1.43l-.08,0a20.65,20.65,0,0,1-7.84-8.31,24,24,0,0,1-2.87-11.77c0-4.22,1-7,3-8.34S178.73,301.77,182,303.64Z"/><path class="cls-5" d="M240.79,303.35l.08,0c2.61-1.49,4.73-2,6.33-1.52s2.46,2,2.55,4.47l-3,1.72q-.45-4.61-5.76-1.57a12.73,12.73,0,0,0-4,3.4,6.34,6.34,0,0,0-1.41,3.76c0,1.12.37,1.74,1.13,1.87a10.94,10.94,0,0,0,4.23-.79,33.16,33.16,0,0,1,4.91-1.26,4.22,4.22,0,0,1,3.13.6c.86.58,1.29,1.78,1.29,3.59a12.93,12.93,0,0,1-2.4,7.1,18.08,18.08,0,0,1-6.15,5.8l-.08,0q-4.91,2.81-7.34,1.66t-2.55-5.06l3-1.69c.16,1.9.87,3,2.15,3.19a7.24,7.24,0,0,0,4.66-1.23l.09-.05a13.18,13.18,0,0,0,4.07-3.55,7.07,7.07,0,0,0,1.58-4.22c0-1.47-.54-2.23-1.63-2.28a18.61,18.61,0,0,0-5.61,1.23c-2.66.86-4.56,1-5.72.55s-1.73-1.7-1.73-3.63a12.07,12.07,0,0,1,2.27-6.63A17.72,17.72,0,0,1,240.79,303.35Z"/><path class="cls-5" d="M223.77,259.39l.07,0q3.09,1.81,3.23,3.85t-2.52,3.56a9.77,9.77,0,0,1-3.61,1.15,11.92,11.92,0,0,1-4.45-.26,3.09,3.09,0,0,1,1.1,3.14,5.09,5.09,0,0,1-2.6,2.82,13.79,13.79,0,0,1-7.43,1.73,15.42,15.42,0,0,1-7.38-2c-2.24-1.31-3.41-2.69-3.58-4.17s.66-2.82,2.52-4l3.08,1.79a3,3,0,0,0-1.8,2.37c-.06.92.63,1.8,2.06,2.63a8.75,8.75,0,0,0,4.67,1.17,9.81,9.81,0,0,0,4.72-1.29c1.46-.83,2.14-1.73,2.07-2.68s-.92-1.9-2.56-2.86l-1.13-.66,2.32-1.34.68.39a7.79,7.79,0,0,0,8.31.23c1.18-.68,1.75-1.37,1.75-2.1s-.58-1.42-1.73-2.1a7.88,7.88,0,0,0-7.63-.17l-3.06-1.79a13.77,13.77,0,0,1,6.72-1.27A14.09,14.09,0,0,1,223.77,259.39Z"/><text class="cls-6" transform="translate(410.89 381.57)">CS<tspan class="cls-2" x="252.6" y="0">3</tspan></text></svg>