<svg id="Layer_1" data-name="Layer 1" xmlns="http://www.w3.org/2000/svg" viewBox="0 0 512 512"><defs><style>.cls-1{fill:#003263;}.cls-2{fill:#005936;}.cls-3{fill:#0071bc;}.cls-4{fill:#a7b0b7;}.cls-5{fill:#fff;}</style></defs><title>Artboard 2</title><polygon class="cls-1" points="429.82 152.46 429.5 354.52 255.83 457.8 82.48 359.02 82.8 156.97 256.47 53.68 429.82 152.46"/><polygon class="cls-1" points="359.87 194.22 359.68 315.08 255.81 376.85 152.13 317.77 152.32 196.92 256.19 135.15 359.87 194.22"/><polygon class="cls-1" points="315.32 220.72 315.21 289.74 255.89 325.02 196.68 291.28 196.79 222.26 256.11 186.98 315.32 220.72"/><polygon class="cls-2" points="196.79 222.26 256 256 315.32 220.72 256.11 186.98 196.79 222.26"/><polygon class="cls-3" points="255.89 325.02 196.68 291.28 196.79 222.26 256 256 255.89 325.02"/><polygon class="cls-4" points="255.81 376.85 255.89 325.02 315.21 289.74 315.32 220.72 359.87 194.22 359.68 315.08 255.81 376.85"/><polygon class="cls-2" points="359.87 194.22 416.94 160.29 256.3 68.75 95.36 164.46 152.32 196.92 256.19 135.15 359.87 194.22"/><polygon class="cls-3" points="255.71 443.25 255.81 376.85 152.13 317.77 152.32 196.92 95.36 164.46 95.06 351.71 255.71 443.25"/><path class="cls-5" d="M226,259.38l.08.06a19.74,19.74,0,0,1,6.43,6.1,16.1,16.1,0,0,1,2.95,7.92l-3.17-1.85a10.18,10.18,0,0,0-1.88-5.13,13.37,13.37,0,0,0-4.32-4c-2.39-1.38-4.24-1.53-5.62-.48s-2.09,3.31-2.12,6.76a19.6,19.6,0,0,0,2,9.16,14.17,14.17,0,0,0,5.53,6c1.83,1.06,3.29,1.41,4.41,1.05s1.78-1.46,1.94-3.26l3.17,1.85c-.25,2.71-1.23,4.33-3,4.87s-3.88.06-6.48-1.43l-.07,0a20.58,20.58,0,0,1-7.84-8.31,24.15,24.15,0,0,1-2.87-11.77q0-6.33,3-8.34T226,259.38Z"/><path class="cls-5" d="M284.79,259.09l.08,0c2.62-1.49,4.73-2,6.33-1.52s2.46,2,2.55,4.47l-3,1.72q-.45-4.61-5.76-1.57a12.58,12.58,0,0,0-4,3.4,6.27,6.27,0,0,0-1.42,3.76c0,1.12.38,1.74,1.13,1.87a10.91,10.91,0,0,0,4.23-.79,33.23,33.23,0,0,1,4.92-1.26,4.2,4.2,0,0,1,3.12.6c.86.58,1.29,1.78,1.29,3.59a13.06,13.06,0,0,1-2.4,7.1,18.08,18.08,0,0,1-6.15,5.8l-.07,0q-4.92,2.81-7.35,1.66t-2.54-5.06l3-1.69c.15,1.9.87,3,2.16,3.19a7.19,7.19,0,0,0,4.64-1.23l.09-.05a13,13,0,0,0,4.08-3.55,7.07,7.07,0,0,0,1.58-4.22c0-1.47-.54-2.23-1.63-2.28a18.67,18.67,0,0,0-5.61,1.23c-2.66.86-4.57,1.05-5.72.55s-1.73-1.7-1.72-3.63a11.87,11.87,0,0,1,2.26-6.62A17.65,17.65,0,0,1,284.79,259.09Z"/><path class="cls-5" d="M267.81,215.15c2.09,1.23,3.16,2.51,3.26,3.87s-.74,2.54-2.51,3.56a9.9,9.9,0,0,1-3.61,1.15,12,12,0,0,1-4.46-.26,3.1,3.1,0,0,1,1.1,3.14,5.06,5.06,0,0,1-2.6,2.82,13.85,13.85,0,0,1-7.42,1.73,15.45,15.45,0,0,1-7.42-2c-2.21-1.29-3.39-2.66-3.55-4.15s.67-2.82,2.52-4l3.08,1.8a3,3,0,0,0-1.8,2.36c-.05.92.63,1.8,2.06,2.63a8.76,8.76,0,0,0,4.66,1.17,9.78,9.78,0,0,0,4.73-1.28c1.45-.84,2.15-1.73,2.08-2.69s-.93-1.9-2.57-2.86l-1.13-.66,2.32-1.34.68.4a7.83,7.83,0,0,0,8.31.22c1.17-.67,1.76-1.37,1.75-2.1s-.59-1.42-1.73-2.09a7.85,7.85,0,0,0-7.63-.18l-3.06-1.79a13.9,13.9,0,0,1,6.73-1.27A14.14,14.14,0,0,1,267.81,215.15Z"/></svg>