<svg xmlns="http://www.w3.org/2000/svg" viewBox="0 0 347.34 404.12"><defs><style>.cls-1{fill:#003263;}.cls-2{fill:#00c4a8;}.cls-3{fill:#0071bc;}.cls-4{fill:#3b82f6;}</style></defs><title>cs3-cube</title><g id="Layer_2" data-name="Layer 2"><g id="Layer_1-2" data-name="Layer 1"><polygon class="cls-1" points="347.34 98.78 347.02 300.84 173.35 404.12 0 305.35 0.32 103.28 173.99 0 347.34 98.78"/><polygon class="cls-1" points="277.39 140.54 277.2 261.4 173.33 323.17 69.65 264.1 69.84 143.24 173.71 81.47 277.39 140.54"/><polygon class="cls-1" points="232.84 167.04 232.74 236.06 173.41 271.34 114.2 237.6 114.31 168.58 173.63 133.3 232.84 167.04"/><polygon class="cls-2" points="114.31 168.58 173.52 202.32 232.84 167.04 173.63 133.3 114.31 168.58"/><polygon class="cls-3" points="173.41 271.34 114.2 237.6 114.31 168.58 173.52 202.32 173.41 271.34"/><polygon class="cls-3" points="173.33 323.17 173.41 271.34 232.74 236.06 232.84 167.04 277.39 140.54 277.2 261.4 173.33 323.17"/><polygon class="cls-2" points="277.39 140.54 334.46 106.61 173.82 15.07 12.88 110.78 69.84 143.24 173.71 81.47 277.39 140.54"/><polygon class="cls-4" points="173.23 389.57 173.33 323.17 69.65 264.1 69.84 143.24 12.88 110.78 12.58 298.03 173.23 389.57"/></g></g></svg>