<svg id="Layer_1" data-name="Layer 1" xmlns="http://www.w3.org/2000/svg" viewBox="0 0 800 600">
    <defs>
        <style>.cls-1{fill:#003263;}.cls-2{fill:#00c4a8;}.cls-3{fill:#0071bc;}.cls-4{fill:#3b82f6;}.cls-5{fill:#006657;}</style>
    </defs>
    <title>cs3-text-logo</title>
    <polygon class="cls-1"
             points="385.82 196.72 385.5 398.78 211.83 502.06 38.48 403.28 38.8 201.22 212.47 97.94 385.82 196.72"/>
    <polygon class="cls-1"
             points="315.87 238.48 315.68 359.34 211.81 421.11 108.13 362.03 108.32 241.18 212.19 179.41 315.87 238.48"/>
    <polygon class="cls-1"
             points="271.32 264.98 271.21 334 211.89 369.28 152.68 335.54 152.79 266.52 212.11 231.24 271.32 264.98"/>
    <polygon class="cls-2" points="152.79 266.52 212 300.26 271.32 264.98 212.11 231.24 152.79 266.52"/>
    <polygon class="cls-3" points="211.89 369.28 152.68 335.54 152.79 266.52 212 300.26 211.89 369.28"/>
    <polygon class="cls-3"
             points="211.81 421.11 211.89 369.28 271.21 334 271.32 264.98 315.87 238.48 315.68 359.34 211.81 421.11"/>
    <polygon class="cls-2"
             points="315.87 238.48 372.94 204.54 212.29 113.01 51.35 208.72 108.32 241.18 212.19 179.41 315.87 238.48"/>
    <polygon class="cls-4"
             points="211.71 487.51 211.81 421.11 108.13 362.03 108.32 241.18 51.35 208.72 51.06 395.97 211.71 487.51"/>
    <path class="cls-1"
          d="M534.78,334.15A51.15,51.15,0,0,1,526.9,360a47.58,47.58,0,0,1-20.25,17.36q-13,6.15-29.77,6.15-27.61,0-43.48-18t-15.87-50.79v-6.93q0-20.58,7.16-36a54.33,54.33,0,0,1,20.64-23.86q13.46-8.41,31.16-8.41,25.49,0,41,13.41t17.6,37H501.4Q501,277.11,495,271.53T476.49,266q-12.6,0-18.47,9.43t-6.15,30.1v9.91q0,22.41,5.62,32T476.88,357q11.63,0,17.79-5.48t6.54-17.41Z"/>
    <path class="cls-1"
          d="M623,344.34q0-7.39-5.24-11.54t-18.42-8.56a176.19,176.19,0,0,1-21.55-8.56q-27.22-13.37-27.22-36.75a33,33,0,0,1,6.78-20.53q6.78-8.89,19.19-13.85a74.52,74.52,0,0,1,27.9-5A65.32,65.32,0,0,1,631.5,245a42.85,42.85,0,0,1,18.62,15.34,40.1,40.1,0,0,1,6.63,22.75H623.09q0-8.56-5.25-13.27t-14.18-4.72q-9,0-14.29,4a12.28,12.28,0,0,0-5.24,10.15q0,5.4,5.77,9.77t20.3,9a124.41,124.41,0,0,1,23.85,10.05q22.71,13.08,22.7,36.07,0,18.38-13.85,28.86t-38,10.48a75.41,75.41,0,0,1-30.83-6.1q-13.8-6.12-20.78-16.74a43.62,43.62,0,0,1-7-24.48h33.86q0,11.25,5.81,16.59t18.91,5.34q8.37,0,13.22-3.61A11.89,11.89,0,0,0,623,344.34Z"/>
    <path class="cls-5"
          d="M701.67,298H717q18.18,0,18.18-17.8a15.38,15.38,0,0,0-4.33-11.3q-4.32-4.38-12.22-4.37a17.56,17.56,0,0,0-11.2,3.75,11.43,11.43,0,0,0-4.76,9.33H670.22a33.13,33.13,0,0,1,6.16-19.72,40.64,40.64,0,0,1,17.07-13.52,58.52,58.52,0,0,1,24-4.85q23.37,0,36.75,10.67t13.37,29.34A29.61,29.61,0,0,1,762,296.58q-5.53,8-16.12,13a37.64,37.64,0,0,1,17.51,12.26q6.35,8.24,6.35,20.35,0,18.75-14.43,30t-37.9,11.25a62,62,0,0,1-25.54-5.24q-11.77-5.24-17.84-14.52A37.78,37.78,0,0,1,668,342.61h32.61a14.6,14.6,0,0,0,5.19,11.16,18.34,18.34,0,0,0,12.79,4.71q8.56,0,13.66-4.76a15.91,15.91,0,0,0,5.1-12.17q0-10.57-5.29-15t-14.62-4.43H701.67Z"/>
</svg>